<svg xmlns="http://www.w3.org/2000/svg" width="600" height="400" viewBox="0 0 600 400">
  <defs>
    <linearGradient id="bg" x1="0%" y1="0%" x2="100%" y2="100%">
      <stop offset="0%" style="stop-color:#1b4332"/>
      <stop offset="100%" style="stop-color:#2d6a4f"/>
    </linearGradient>
  </defs>
  <rect width="600" height="400" fill="url(#bg)"/>
  <!-- Dashboard mockup -->
  <rect x="60" y="50" width="480" height="260" rx="12" fill="#ffffff" opacity="0.95"/>
  <!-- Sidebar -->
  <rect x="60" y="50" width="100" height="260" rx="12" fill="#0f172a"/>
  <rect x="60" y="50" width="100" height="260" fill="#0f172a"/>
  <rect x="62" y="282" width="96" height="28" rx="0" fill="#0f172a"/>
  <text x="110" y="80" font-family="sans-serif" font-size="11" font-weight="bold" fill="#ffffff" text-anchor="middle">APE</text>
  <rect x="74" y="100" width="72" height="6" rx="3" fill="#334155"/>
  <rect x="74" y="116" width="72" height="6" rx="3" fill="#334155"/>
  <rect x="74" y="132" width="72" height="6" rx="3" fill="#22c55e" opacity="0.6"/>
  <rect x="74" y="148" width="72" height="6" rx="3" fill="#334155"/>
  <!-- Chart area -->
  <rect x="180" y="70" width="200" height="100" rx="6" fill="#f8fafc"/>
  <polyline points="190,150 220,120 250,135 280,95 310,110 340,80 360,90" fill="none" stroke="#22c55e" stroke-width="2.5"/>
  <circle cx="340" cy="80" r="4" fill="#22c55e"/>
  <text x="190" y="85" font-family="sans-serif" font-size="10" font-weight="bold" fill="#0f172a">収益シミュレーション</text>
  <!-- KPI cards -->
  <rect x="400" y="70" width="120" height="45" rx="6" fill="#ecfdf5"/>
  <text x="410" y="88" font-family="sans-serif" font-size="8" fill="#047857">利益率改善</text>
  <text x="410" y="106" font-family="sans-serif" font-size="18" font-weight="bold" fill="#065f46">+23%</text>
  <rect x="400" y="125" width="120" height="45" rx="6" fill="#fef3c7"/>
  <text x="410" y="143" font-family="sans-serif" font-size="8" fill="#92400e">推奨作物</text>
  <text x="410" y="161" font-family="sans-serif" font-size="14" font-weight="bold" fill="#78350f">トマト</text>
  <!-- Data table -->
  <rect x="180" y="185" width="340" height="110" rx="6" fill="#f8fafc"/>
  <text x="195" y="204" font-family="sans-serif" font-size="9" font-weight="bold" fill="#0f172a">土壌・気象データ分析</text>
  <rect x="190" y="214" width="320" height="1" fill="#e2e8f0"/>
  <rect x="190" y="222" width="60" height="6" rx="2" fill="#cbd5e1"/>
  <rect x="260" y="222" width="80" height="6" rx="2" fill="#cbd5e1"/>
  <rect x="360" y="222" width="40" height="6" rx="2" fill="#86efac"/>
  <rect x="190" y="240" width="60" height="6" rx="2" fill="#cbd5e1"/>
  <rect x="260" y="240" width="80" height="6" rx="2" fill="#cbd5e1"/>
  <rect x="360" y="240" width="40" height="6" rx="2" fill="#fde68a"/>
  <rect x="190" y="258" width="60" height="6" rx="2" fill="#cbd5e1"/>
  <rect x="260" y="258" width="80" height="6" rx="2" fill="#cbd5e1"/>
  <rect x="360" y="258" width="40" height="6" rx="2" fill="#86efac"/>
  <!-- Title -->
  <text x="300" y="350" font-family="sans-serif" font-size="28" font-weight="bold" fill="#ffffff" text-anchor="middle">APE</text>
  <text x="300" y="378" font-family="sans-serif" font-size="13" fill="#86efac" text-anchor="middle">Agri-Profit Engine</text>
</svg>
